# xmcd
#
# Track frame offsets:
#	150
#	18588
#	36764
#	53181
#	67470
#	85928
#	99725
#	107711
#	124594
#	144088
#	157341
#	174978
#	190603
#	209406
#	227517
#
# Disc length: 3262 seconds
#
# Revision: 1
# Processed by: cddbd v1.4PL0 Copyright (c) Steve Scherf et al.
# Submitted via: CDmax 1.9
#
DISCID=cf0cbc0f
DTITLE=Hal Ketchum - King Of Love
DYEAR=2003
DGENRE=Country
TTITLE0=Everytime I Look In Your Eyes
TTITLE1=Run Loretta Run
TTITLE2=As Long As You Love Me
TTITLE3=King Of Love, The
TTITLE4=On Her Own Time
TTITLE5=God Makes Stars
TTITLE6=Ruby And The Rose, The
TTITLE7=Takin' My Time
TTITLE8=Way She Loves Me, The
TTITLE9=Carpenter's Way, The
TTITLE10=Evangeline
TTITLE11=Prisoner Of Love
TTITLE12=Too Much Of Nothing
TTITLE13=Skies Over Dublin, The
TTITLE14=Angel Song, The
EXTD=
EXTT0=
EXTT1=
EXTT2=
EXTT3=
EXTT4=
EXTT5=
EXTT6=
EXTT7=
EXTT8=
EXTT9=
EXTT10=
EXTT11=
EXTT12=
EXTT13=
EXTT14=
PLAYORDER=
